<svg width="23" height="23" viewBox="0 0 23 23" fill="none" xmlns="http://www.w3.org/2000/svg">
<path d="M0 3.44031C0 2.70267 0.258176 2.09413 0.774506 1.61469C1.29084 1.13523 1.96209 0.895508 2.78822 0.895508C3.59962 0.895508 4.25609 1.13153 4.75768 1.60363C5.27401 2.09046 5.53218 2.7248 5.53218 3.5067C5.53218 4.21482 5.2814 4.8049 4.77981 5.277C4.26348 5.76383 3.58486 6.00724 2.74396 6.00724H2.72183C1.91044 6.00724 1.25397 5.76383 0.752377 5.277C0.250785 4.79016 0 4.17793 0 3.44031ZM0.287674 22.803V8.02096H5.20025V22.803H0.287674ZM7.92209 22.803H12.8347V14.5489C12.8347 14.0326 12.8937 13.6343 13.0117 13.354C13.2182 12.8524 13.5317 12.4283 13.9522 12.0816C14.3726 11.7349 14.9 11.5616 15.5344 11.5616C17.1867 11.5616 18.0128 12.6754 18.0128 14.903V22.803H22.9254V14.3276C22.9254 12.1443 22.409 10.4883 21.3764 9.35975C20.3437 8.23118 18.9791 7.6669 17.2825 7.6669C15.3795 7.6669 13.8968 8.48566 12.8347 10.1232V10.1674H12.8125L12.8347 10.1232V8.02096H7.92209C7.95159 8.49303 7.96635 9.9609 7.96635 12.4246C7.96635 14.8882 7.95159 18.3477 7.92209 22.803Z" fill="#4354FA"/>
</svg>
