<svg width="23" height="24" viewBox="0 0 23 24" fill="none" xmlns="http://www.w3.org/2000/svg">
<path d="M15.0539 23.6569C14.7395 23.5542 14.2677 23.4505 14.0063 23.3469C13.6918 23.1928 13.3252 23.1928 12.1734 23.2442C11.0736 23.2956 10.4977 23.2442 9.71243 23.1406C5.52278 22.4189 2.17143 19.4248 0.967479 15.2964C0.758136 14.5225 0.706033 14.1098 0.706033 12.2519C0.706033 10.2391 0.653929 10.0841 0.391553 9.2588C-1.12688 5.18084 1.96209 0.897461 6.36108 0.897461C7.25149 0.897461 8.35124 1.15606 8.97926 1.46509C9.39888 1.67142 9.66033 1.72277 11.283 1.72277C12.7493 1.72277 13.3252 1.77413 14.0584 1.98137C17.3576 2.8076 20.0279 4.92316 21.4421 7.86494C22.3326 9.67146 22.647 11.5293 22.4368 13.6449C22.3326 14.7811 22.3326 14.8838 22.594 15.555C23.4323 17.9814 22.6461 20.7673 20.6038 22.4198C19.9749 22.9361 18.7188 23.5037 17.9336 23.71C17.1474 23.865 15.8913 23.865 15.1051 23.6587L15.0539 23.6569ZM13.6397 19.6834C15.3684 19.3221 16.8859 18.2896 17.4628 17.0516C18.1959 15.5541 17.9857 13.7999 16.991 12.716C16.1527 11.787 14.8967 11.2707 11.9119 10.549C9.92177 10.0841 9.45005 9.87779 9.03137 9.41378C8.66478 9.00021 8.61175 8.69117 8.92716 8.22716C9.24164 7.71088 10.0269 7.40093 11.0736 7.34958C12.593 7.24687 13.2731 7.60726 14.1626 9.00112C14.8437 10.0337 15.5238 10.2914 16.4151 9.8787C17.567 9.31107 17.4618 7.4532 16.2049 6.36929C15.0009 5.389 13.6918 4.97543 11.4923 4.97543C9.18861 4.97543 7.61714 5.44035 6.56949 6.47199C5.73119 7.29822 5.57488 7.76223 5.57488 9.05247C5.57488 10.3941 5.73212 10.8067 6.6216 11.5816C7.56411 12.4592 8.34938 12.7691 11.1769 13.4395C13.1671 13.9044 13.6909 14.1621 14.1617 14.6784C14.3719 14.937 14.4761 15.1433 14.4761 15.6073C14.4761 16.1236 14.424 16.2263 14.0044 16.6399C13.3764 17.2588 12.4339 17.5165 11.229 17.4661C9.81478 17.3625 9.18675 16.9498 8.45358 15.5046C7.92976 14.5243 7.51107 14.163 6.83001 14.163C5.31065 14.163 4.78775 15.4019 5.57302 17.0012C6.25408 18.395 7.61528 19.324 9.34306 19.6853C10.3898 19.8916 12.6944 19.8916 13.6899 19.6853L13.6397 19.6834Z" fill="#4354FA"/>
</svg>
