<svg width="26" height="15" viewBox="0 0 26 15" fill="none" xmlns="http://www.w3.org/2000/svg">
<path d="M12.6188 14.3194H14.1604C14.1604 14.3194 14.6259 14.2699 14.8639 14.023C15.0827 13.7961 15.0758 13.3702 15.0758 13.3702C15.0758 13.3702 15.0456 11.376 16.0055 11.0824C16.9521 10.793 18.1673 13.0097 19.4553 13.8621C20.4293 14.507 21.1695 14.3658 21.1695 14.3658L24.6138 14.3194C24.6138 14.3194 26.4155 14.2122 25.5611 12.8466C25.4912 12.735 25.0634 11.8363 23.0001 9.98994C20.8403 8.05745 21.1298 8.37009 23.7313 5.02727C25.3156 2.99153 25.9489 1.74874 25.751 1.21651C25.5625 0.709415 24.3971 0.843353 24.3971 0.843353L20.5191 0.866476C20.5191 0.866476 20.2315 0.828706 20.0184 0.95163C19.8099 1.07187 19.6762 1.35276 19.6762 1.35276C19.6762 1.35276 19.0622 2.92799 18.2439 4.26781C16.5171 7.09464 15.8265 7.24429 15.5442 7.06849C14.8875 6.65934 15.0516 5.42514 15.0516 4.5481C15.0516 1.80846 15.4826 0.666234 14.2123 0.370505C13.7908 0.272446 13.4803 0.207577 12.4022 0.19698C11.0184 0.183432 9.84744 0.201068 9.18429 0.514281C8.74309 0.722586 8.4027 1.18665 8.61013 1.21337C8.86647 1.24626 9.4468 1.36438 9.75453 1.76801C10.152 2.28937 10.1381 3.45984 10.1381 3.45984C10.1381 3.45984 10.3665 6.68481 9.60484 7.08529C9.08219 7.36006 8.36505 6.79914 6.82551 4.23447C6.03681 2.92076 5.44114 1.46849 5.44114 1.46849C5.44114 1.46849 5.32643 1.19714 5.12156 1.05188C4.87306 0.875901 4.52584 0.820115 4.52584 0.820115L0.840634 0.843315C0.840634 0.843315 0.287515 0.858226 0.0842861 1.09011C-0.0965277 1.29656 0.0698393 1.72308 0.0698393 1.72308C0.0698393 1.72308 2.95477 8.2304 6.22171 11.5098C9.21754 14.5168 12.6188 14.3194 12.6188 14.3194" fill="#4354FA"/>
</svg>
