<svg width="48" height="48" viewBox="0 0 48 48" fill="none" xmlns="http://www.w3.org/2000/svg">
<path d="M39.9997 0C35.5887 0 32 3.58875 32 7.99975C32 11.826 37.6688 19.57 38.997 21.3325C38.9967 21.9018 38.997 22.4609 38.9832 22.9739C38.9686 23.5256 39.4042 23.9857 39.9568 24.0003C39.9656 24.0003 39.9744 24.0003 39.9842 24.0003C40.5232 24.0003 40.9685 23.5696 40.9832 23.0267C40.9969 22.5002 40.9966 21.9256 40.9969 21.34C42.3163 19.5896 47.9995 11.8305 47.9995 7.99975C47.9995 3.58875 44.4108 0 39.9997 0ZM39.9997 19.3257C37.8016 16.3014 33.9999 10.5457 33.9999 7.99975C33.9999 4.69122 36.6912 1.99991 39.9997 1.99991C43.3083 1.99991 45.9996 4.69122 45.9996 7.99975C45.9996 10.5457 42.1979 16.3013 39.9997 19.3257Z" fill="#FF1F1F"/>
<path d="M39.9999 5.99902C38.8974 5.99902 38 6.89647 38 7.99894C38 9.10141 38.8974 9.99885 39.9999 9.99885C41.1024 9.99885 41.9998 9.1015 41.9998 7.99894C41.9998 6.89647 41.1024 5.99902 39.9999 5.99902Z" fill="#FF1F1F"/>
<path d="M11.9998 22.001C8.6913 22.001 6 24.6923 6 28.0008C6 31.3093 8.6913 34.0006 11.9998 34.0006C15.3084 34.0006 17.9997 31.3093 17.9997 28.0008C17.9997 24.6923 15.3084 22.001 11.9998 22.001ZM11.9998 32.0006C9.79387 32.0006 7.99991 30.2068 7.99991 28.0007C7.99991 25.7947 9.79387 24.0009 11.9998 24.0009C14.2058 24.0009 15.9998 25.7947 15.9998 28.0008C15.9998 30.2069 14.2058 32.0006 11.9998 32.0006Z" fill="#FF1F1F"/>
<path d="M27.1466 36.0393C26.629 35.8381 26.0529 36.0949 25.8527 36.6106C25.4045 37.7687 24.844 39.1192 24.0881 40.3565C23.8 40.8282 23.9495 41.4434 24.4202 41.7315C24.5833 41.8312 24.7629 41.878 24.9407 41.878C25.2776 41.878 25.6066 41.7081 25.7952 41.3995C26.6331 40.0265 27.2375 38.5734 27.7179 37.3332C27.9171 36.8185 27.6613 36.2394 27.1466 36.0393Z" fill="#FF1F1F"/>
<path d="M21.5092 43.3379C20.5073 44.1319 19.3687 44.7295 18.0269 45.166C17.5015 45.3369 17.2144 45.9014 17.3853 46.4267C17.523 46.8486 17.9146 47.1172 18.3365 47.1172C18.439 47.1172 18.5434 47.1015 18.646 47.0684C20.1957 46.5645 21.5766 45.837 22.7514 44.9063C23.184 44.5625 23.2573 43.9336 22.9145 43.501C22.5688 43.0695 21.9409 42.9923 21.5092 43.3379Z" fill="#FF1F1F"/>
<path d="M30.6076 28.8201C28.9573 29.7566 28.0403 31.3825 27.4934 32.5231C27.2541 33.0212 27.464 33.6188 27.9621 33.857C28.1018 33.9244 28.2493 33.9556 28.3937 33.9556C28.7668 33.9556 29.1242 33.7467 29.2961 33.3883C29.9904 31.9401 30.6994 31.068 31.5958 30.5582C32.0753 30.2858 32.2442 29.6754 31.9708 29.195C31.6994 28.7146 31.0909 28.5457 30.6076 28.8201Z" fill="#FF1F1F"/>
<path d="M39.6272 26.3448C39.173 26.0373 38.5491 26.1554 38.2385 26.6124C37.9094 27.0988 37.2356 27.7676 35.1975 27.9503C34.6477 28 34.2415 28.4854 34.2912 29.0361C34.3381 29.5557 34.7746 29.9462 35.2864 29.9462C35.3166 29.9462 35.3469 29.9453 35.3772 29.9423C37.5422 29.748 39.0197 29.0254 39.8947 27.7333C40.2044 27.2764 40.0842 26.6544 39.6272 26.3448Z" fill="#FF1F1F"/>
<path d="M14.3691 46.0131C17.5244 42.6483 23.9994 34.9074 23.9994 28.0007C23.9994 21.2723 18.728 16.001 11.9997 16.001C5.27133 16.001 0 21.2723 0 28.0007C0 36.931 10.8513 47.2901 11.3132 47.7267C11.5055 47.9093 11.7527 48.0002 11.9997 48.0002C12.7282 48.0002 13.4205 47.9748 14.0767 47.925C14.6275 47.883 15.0406 47.4035 14.9986 46.8527C14.9686 46.4585 14.7135 46.1511 14.3691 46.0131ZM11.9997 45.59C9.63743 43.18 1.99991 34.8559 1.99991 28.0007C1.99991 22.3933 6.39245 18.0009 11.9997 18.0009C17.6069 18.0009 21.9994 22.3933 21.9994 28.0007C21.9994 34.8559 14.3619 43.1799 11.9997 45.59Z" fill="#FF1F1F"/>
</svg>
