<svg width="50" height="50" viewBox="0 0 50 50" fill="none" xmlns="http://www.w3.org/2000/svg">
<g clip-path="url(#clip0)">
<path d="M49.9165 23.1496C49.9454 23.0714 49.9621 22.9895 49.9658 22.906C49.9658 22.818 49.9515 22.7304 49.9242 22.6469L49.8599 22.4648C49.1787 15.8816 45.9107 9.83852 40.7741 5.66534C40.4071 5.36632 40.0233 5.09623 39.6396 4.81921C39.6204 4.80332 39.6102 4.78092 39.5895 4.76584C39.5687 4.75077 39.552 4.7524 39.5345 4.7414C35.2876 1.69707 30.1961 0.055741 24.9707 0.045964C24.7556 0.045964 24.5393 0.045964 24.3784 0.0626664C21.5911 0.116848 18.834 0.647254 16.2255 1.63107C13.9642 -0.132875 10.8946 -0.452667 8.31792 0.807353C5.74126 2.06737 4.10889 4.68681 4.11297 7.55475C4.16307 8.50883 4.38469 9.4458 4.76803 10.3204C3.91661 11.4843 3.16704 12.7191 2.52786 14.0117C2.51523 14.0317 2.5079 14.0532 2.4969 14.074C-3.41823 26.3047 1.50371 41.0213 13.5869 47.2321C25.6698 53.4434 40.5016 48.8812 47.005 36.9528C48.786 33.6713 49.7984 30.0282 49.965 26.2986C49.991 25.8961 50 25.4859 50 25.0753C50 24.4288 49.9666 23.788 49.9165 23.1496ZM47.4922 18.868C47.3863 18.7739 47.2885 18.6652 47.1777 18.5784C46.0875 17.7506 44.852 17.1334 43.5349 16.7591C42.3356 16.458 41.0821 16.445 39.8767 16.7208C38.8513 16.953 37.788 16.9583 36.7602 16.7362C34.7657 16.3008 33.1896 15.9573 32.3536 14.6224C31.1563 12.7032 31.7177 10.0059 32.981 9.05676C33.3973 8.76956 33.911 8.65997 34.4084 8.75204C35.2933 8.82455 36.1826 8.67464 36.9949 8.31655C37.8593 7.91162 38.6272 7.32703 39.2477 6.60108C39.4053 6.72289 39.5719 6.83247 39.7263 6.95835C43.4913 10.0235 46.2057 14.1869 47.4922 18.868ZM11.6218 1.71458C14.8453 1.71988 17.457 4.33158 17.4619 7.55475C17.4619 10.0504 13.7136 15.7638 11.6218 18.6603C9.63823 15.9797 7.91462 13.1159 6.47494 10.1078C6.08264 9.30892 5.84717 8.44243 5.78159 7.55475C5.78525 4.33077 8.39777 1.71825 11.6218 1.71458ZM1.61004 25.0753C1.6133 23.5207 1.77014 21.9698 2.07811 20.4458C2.16733 21.6056 2.31847 22.6375 2.45372 23.5325C2.97068 26.9533 3.45913 30.1781 5.98039 33.1271C7.03468 34.3696 8.80026 36.4468 11.5301 36.754C14.2599 37.0611 17.6782 35.4907 18.6657 35.0018L19.0446 34.8108C19.5693 34.4804 20.1689 34.2885 20.7878 34.2527C21.8433 34.3484 22.821 34.8479 23.5176 35.6467C24.9414 37.2229 25.3027 39.8545 24.2908 41.2783C23.9665 41.7012 23.5188 42.0124 23.0092 42.1688C22.137 42.4605 21.3956 43.0516 20.9169 43.8375C20.2117 45.1142 20.0805 46.63 20.5564 48.009C9.56857 45.8801 1.62715 36.2676 1.61004 25.0753ZM24.9707 48.4359C24.1645 48.4359 23.3591 48.3944 22.557 48.3117C22.4886 48.2241 22.425 48.1329 22.3668 48.0379C21.8029 46.9951 21.7968 45.7391 22.3509 44.6909C22.6519 44.2127 23.1184 43.8619 23.661 43.7055C24.4566 43.4313 25.1508 42.9217 25.6506 42.2446C27.1017 40.2041 26.6911 36.6688 24.7581 34.5305C23.7527 33.3809 22.3301 32.6802 20.8061 32.5841H20.769C19.8903 32.6105 19.034 32.8656 18.2836 33.3243L17.9276 33.5043C16.1045 34.403 13.5108 35.2915 11.7155 35.0894C9.64353 34.8576 8.20467 33.1621 7.25018 32.0394C5.03731 29.4529 4.60426 26.5911 4.104 23.2791C3.56708 20.4458 3.5459 17.5392 4.04045 14.6981C4.48735 13.7933 4.99209 12.9183 5.55223 12.0783C5.57993 12.1337 5.61049 12.1903 5.63575 12.2453C5.68911 12.3512 5.74411 12.4563 5.80236 12.5622C5.88588 12.7199 5.96939 12.8776 6.0529 13.0364C6.11034 13.1432 6.1686 13.2499 6.22807 13.3574C6.31647 13.5159 6.40569 13.6744 6.49572 13.8329C6.55601 13.938 6.6159 14.0435 6.677 14.1486C6.76989 14.307 6.86277 14.4647 6.95646 14.6224C7.01798 14.7258 7.07909 14.8285 7.14141 14.9311C7.24 15.0978 7.3394 15.2538 7.4388 15.4147C7.49543 15.506 7.55124 15.5984 7.60542 15.6885C7.72885 15.8864 7.85147 16.0783 7.97409 16.2726C8.00668 16.3228 8.03928 16.3753 8.07105 16.4246C8.22382 16.6613 8.37536 16.8923 8.52405 17.1175C8.58068 17.2011 8.63568 17.2846 8.69108 17.3681C8.78274 17.5058 8.8744 17.6435 8.96362 17.7751L9.1616 18.0647C9.2333 18.1706 9.30581 18.2765 9.37588 18.3776L9.5759 18.6652C9.63783 18.7548 9.69975 18.8424 9.75882 18.9263C9.81789 19.0106 9.8847 19.106 9.94662 19.1919C10.0081 19.2779 10.0501 19.3378 10.0994 19.407L10.266 19.6372L10.4021 19.8258L10.5349 20.0087L10.6432 20.1554L10.7451 20.2939L10.8058 20.3774C10.8803 20.4784 10.937 20.5542 10.9528 20.575C11.1101 20.7852 11.3574 20.909 11.6201 20.909C11.8829 20.909 12.1302 20.7852 12.2874 20.575C12.9877 19.6465 19.1305 11.411 19.1305 7.55475C19.1305 7.31114 19.1155 7.06916 19.0922 6.82881C19.0849 6.75466 19.0731 6.68052 19.0637 6.60638C19.0421 6.43935 19.0165 6.27233 18.9806 6.10571C18.9647 6.0222 18.9472 5.94398 18.9289 5.86373C18.8902 5.6967 18.8454 5.53009 18.7945 5.36306C18.7737 5.29625 18.7562 5.22863 18.7342 5.16304C18.6592 4.93939 18.5749 4.71818 18.4791 4.50309C18.4608 4.46194 18.4388 4.41957 18.4197 4.38209C18.3362 4.20855 18.2531 4.03664 18.1569 3.8688C18.1154 3.79384 18.0693 3.72133 18.0245 3.64759C17.9443 3.51601 17.8607 3.38646 17.774 3.25895C17.7222 3.18481 17.6697 3.11067 17.6155 3.03775C17.587 3.00108 17.563 2.96198 17.532 2.92613C19.2678 2.34154 21.068 1.96838 22.8935 1.8148C21.5927 4.27007 21.1678 6.5412 21.6534 8.57279C22.0156 9.93343 22.7028 11.1861 23.6561 12.2229C24.4411 13.1949 25.0057 13.8956 24.9707 15.0395C24.899 17.4589 22.1667 19.473 21.1328 20.234C19.7766 21.2105 18.2608 21.9425 16.6529 22.398C15.1374 22.8929 13.8302 23.3199 13.3303 24.8117C12.8361 26.7818 13.6476 28.8488 15.3505 29.9561C16.371 30.5072 17.5735 30.6136 18.6751 30.2498C19.8817 29.9695 21.1291 29.9096 22.357 30.0738C23.9421 30.2983 25.3088 30.4909 25.957 31.3986C26.3415 31.9408 26.3216 32.5014 26.2466 33.5296C26.0755 34.9851 26.2234 36.4607 26.6793 37.8535C27.0597 38.995 27.6346 40.7186 29.0156 40.9174C29.1052 40.9316 29.196 40.939 29.2865 40.939C30.2638 40.939 30.8618 40.0761 31.4908 39.1685C31.7686 38.7672 32.075 38.3342 32.442 37.8995C34.1591 40.6738 35.9035 42.9889 35.9846 43.0989C36.1422 43.3091 36.3895 43.4325 36.6519 43.4325C36.9146 43.4325 37.1619 43.3091 37.3196 43.0989C39.1295 40.675 40.7794 38.1346 42.2578 35.4952C43.2828 35.7922 44.2588 36.237 45.1551 36.8159C40.9807 44.0118 33.2898 48.4396 24.9707 48.4359ZM40.5431 25.732C41.7828 26.8376 42.4916 28.4198 42.4912 30.0811C42.4912 30.6812 42.2476 31.8707 41.0907 34.1301C39.7699 36.578 38.2871 38.9343 36.651 41.1834C35.866 40.0896 34.5152 38.148 33.3065 36.1075C32.6327 34.9888 32.031 33.829 31.5042 32.6342C31.1119 31.8353 30.8765 30.9688 30.8109 30.0811C30.8145 26.8571 33.4271 24.2446 36.651 24.241C36.8315 24.241 37.0104 24.2491 37.1884 24.2654C38.4358 24.3782 39.6131 24.8932 40.5431 25.732ZM48.3021 26.2127C48.1582 29.3861 47.3586 32.4952 45.9527 35.344C45.0386 34.766 44.0535 34.3073 43.0228 33.9789C43.6673 32.7727 44.0547 31.445 44.1598 30.0811C44.1529 27.2181 42.525 24.606 39.9573 23.3382L39.9048 23.315C39.7182 23.225 39.5288 23.1406 39.3353 23.0649C39.2025 23.0131 39.0648 22.9728 38.9287 22.9296C38.8452 22.9043 38.7702 22.873 38.6892 22.8461C38.4741 22.785 38.2553 22.7353 38.0353 22.6941H38.0243C37.8911 22.6693 37.7559 22.6558 37.6206 22.6383C35.4754 22.3414 33.3069 22.9919 31.6794 24.4206C30.0515 25.8497 29.1256 27.9155 29.1423 30.0811C29.207 31.1933 29.4877 32.2826 29.9684 33.2876C30.4361 34.3525 30.9636 35.3901 31.5486 36.3951C31.0272 36.9658 30.5498 37.5748 30.12 38.2173C29.8906 38.6104 29.601 38.9648 29.2616 39.2679C29.0946 39.2426 28.7854 38.8866 28.2603 37.3255C27.8774 36.1405 27.7572 34.8857 27.9091 33.6498C28.1259 32.5397 27.9128 31.3888 27.3135 30.4298C26.2482 28.9401 24.3886 28.6777 22.579 28.4211C21.1723 28.2288 19.7424 28.2931 18.359 28.6105C17.2916 28.8146 16.7963 28.8908 16.2296 28.5376C15.1945 27.8279 14.6771 26.5728 14.9113 25.3397C15.1342 24.6724 15.8019 24.4312 17.1641 23.9839C18.9431 23.4735 20.6199 22.6587 22.1207 21.5755C23.3363 20.6837 26.5428 18.3173 26.6393 15.0888C26.6927 13.3224 25.8091 12.2327 24.9548 11.1792C24.1653 10.3335 23.5909 9.31055 23.2797 8.19637C22.8365 6.33751 23.3856 4.15763 24.875 1.71458H24.9707C29.5639 1.7211 34.054 3.07849 37.8817 5.61767C37.4397 6.11019 36.9048 6.51024 36.3072 6.79499C35.7255 7.04675 35.0896 7.14615 34.4585 7.08423C33.581 6.97587 32.6954 7.20359 31.9788 7.72178C30.087 9.14597 29.2392 12.7777 30.9396 15.5051C32.1499 17.4382 34.2174 17.8887 36.4751 18.3808C37.6903 18.6375 38.9462 18.6322 40.1594 18.3649C41.133 18.1327 42.1482 18.1356 43.1202 18.3743C44.214 18.6896 45.2406 19.2037 46.1491 19.8902C47.0925 20.6727 47.8079 21.6944 48.2206 22.8485C48.289 23.5855 48.3314 24.3245 48.3314 25.0753C48.3314 25.4484 48.3241 25.8261 48.2988 26.2127H48.3021Z" fill="#FF1F1F"/>
<path d="M11.6217 10.0586C13.4646 10.0586 14.9589 8.56475 14.9589 6.72136C14.9589 4.87839 13.4646 3.38412 11.6217 3.38412C9.77868 3.38412 8.28442 4.87839 8.28442 6.72136C8.28442 8.56475 9.77868 10.0586 11.6217 10.0586ZM11.6217 5.05274C12.5431 5.05274 13.2903 5.79988 13.2903 6.72136C13.2903 7.64285 12.5431 8.38998 11.6217 8.38998C10.7002 8.38998 9.95304 7.64285 9.95304 6.72136C9.95304 5.79988 10.7002 5.05274 11.6217 5.05274Z" fill="#FF1F1F"/>
<path d="M33.3137 29.2477C33.3137 31.0911 34.808 32.585 36.651 32.585C38.4939 32.585 39.9882 31.0911 39.9882 29.2477C39.9882 27.4048 38.4939 25.9105 36.651 25.9105C34.808 25.9105 33.3137 27.4048 33.3137 29.2477ZM38.3196 29.2477C38.3196 30.1692 37.5725 30.9164 36.651 30.9164C35.7295 30.9164 34.9823 30.1692 34.9823 29.2477C34.9823 28.3262 35.7295 27.5791 36.651 27.5791C37.5725 27.5791 38.3196 28.3262 38.3196 29.2477Z" fill="#FF1F1F"/>
</g>
<defs>
<clipPath id="clip0">
<rect width="50" height="50" fill="white"/>
</clipPath>
</defs>
</svg>

