<svg width="48" height="47" viewBox="0 0 48 47" fill="none" xmlns="http://www.w3.org/2000/svg">
<path d="M47.5698 0.127296C47.3031 -0.0344819 46.9707 -0.0415929 46.696 0.103296L32 7.88374L17.3049 0.103296C17.2933 0.0970737 17.28 0.0952959 17.2684 0.0899625C17.2258 0.0695181 17.1822 0.054407 17.1378 0.0410737C17.1129 0.0339626 17.0889 0.0259626 17.064 0.0206292C17.0151 0.0108515 16.9653 0.00729594 16.9147 0.00551817C16.8924 0.00462928 16.8702 0.00196259 16.8471 0.00285148C16.7991 0.00551815 16.752 0.014407 16.7049 0.0250737C16.6782 0.030407 16.6516 0.0339626 16.6258 0.0419626C16.6196 0.0437404 16.6133 0.0437404 16.608 0.0455181L0.608 5.37885C0.244444 5.49974 0 5.8393 0 6.22241V44.4446C0 44.73 0.136889 44.9984 0.369778 45.1664C0.522667 45.2757 0.704889 45.3335 0.888889 45.3335C0.983111 45.3335 1.07822 45.3184 1.16978 45.2873L16.8551 40.0589L31.6613 46.1557C31.6738 46.1611 31.688 46.1593 31.7004 46.1637C31.7982 46.1984 31.8978 46.2224 32 46.2224C32.08 46.2224 32.1591 46.2091 32.2364 46.1877C32.2613 46.1806 32.2844 46.1691 32.3093 46.1602C32.3449 46.1469 32.3822 46.1371 32.416 46.1193L47.5271 38.1193C47.8178 37.9655 48 37.6624 48 37.3335V0.889074C48 0.577074 47.8364 0.288185 47.5698 0.127296ZM1.77778 6.8633L16 2.12285V26.1157C15.6178 26.1851 15.2409 26.2633 14.8764 26.3593C14.4018 26.4855 14.1191 26.9717 14.2453 27.4464C14.3511 27.8446 14.7102 28.1077 15.104 28.1077C15.1787 28.1077 15.256 28.098 15.3324 28.0784C15.5458 28.0215 15.7787 27.9931 16 27.9469V38.4713L1.77778 43.2108V6.8633ZM17.7778 27.698C18.0631 27.6757 18.3396 27.6393 18.632 27.6331C19.1227 27.6224 19.512 27.2162 19.5022 26.7255C19.4916 26.2411 19.096 25.8553 18.6133 25.8553C18.6071 25.8553 18.6 25.8553 18.5938 25.8553C18.3182 25.8615 18.0471 25.8766 17.7778 25.8953V2.36552L31.1111 9.42419V28.2633C30.4764 28.2357 29.8311 28.1611 29.1547 28.0304C28.6711 27.9353 28.2062 28.2517 28.1129 28.7335C28.0196 29.2153 28.3351 29.682 28.8169 29.7753C29.6044 29.9282 30.3689 30.0028 31.112 30.0322V44.0064L17.7778 38.5157V27.698ZM46.2222 36.7975L32.8889 43.8562V29.9362C33.2196 29.786 33.44 29.4482 33.4107 29.0651C33.3849 28.7326 33.1716 28.466 32.8889 28.3353V9.42419L46.2222 2.36552V36.7975Z" fill="#FF1F1F"/>
<path d="M9.77843 7.11133C7.32776 7.11133 5.33398 9.10511 5.33398 11.5558C5.33398 13.7024 6.86376 15.4971 8.88954 15.9104V17.778C8.88954 18.2696 9.28776 18.6669 9.77843 18.6669C10.2691 18.6669 10.6673 18.2696 10.6673 17.778V15.9104C12.6931 15.4971 14.2229 13.7024 14.2229 11.5558C14.2229 9.10511 12.2291 7.11133 9.77843 7.11133ZM9.77843 14.2224C8.30821 14.2224 7.11176 13.026 7.11176 11.5558C7.11176 10.0856 8.30821 8.88911 9.77843 8.88911C11.2487 8.88911 12.4451 10.0856 12.4451 11.5558C12.4451 13.026 11.2487 14.2224 9.77843 14.2224Z" fill="#FF1F1F"/>
<path d="M40.0625 23.7098C40.1692 23.7516 40.2785 23.7703 40.386 23.7703C40.7416 23.7703 41.0767 23.5561 41.2145 23.2049C41.6323 22.1392 41.9674 20.9356 42.2127 19.6281C42.3034 19.1463 41.9852 18.6823 41.5025 18.5907C41.0172 18.5107 40.5558 18.8192 40.4652 19.3018C40.2412 20.5001 39.9363 21.5952 39.5594 22.5578C39.3807 23.0138 39.6056 23.5303 40.0625 23.7098Z" fill="#FF1F1F"/>
<path d="M11.3817 27.8598C10.3088 28.5327 9.34167 29.3754 8.50611 30.3665C8.18967 30.7416 8.23767 31.3025 8.61278 31.6189C8.77989 31.7594 8.98344 31.8278 9.18522 31.8278C9.43856 31.8278 9.68922 31.7203 9.86522 31.5123C10.5817 30.6625 11.4092 29.9398 12.3257 29.3665C12.7417 29.1051 12.867 28.5567 12.6066 28.1407C12.3461 27.7247 11.7968 27.5985 11.3817 27.8598Z" fill="#FF1F1F"/>
<path d="M7.6675 33.1343C7.22128 32.9298 6.69328 33.1227 6.48794 33.5689C5.57594 35.5476 5.35016 37.1449 5.34039 37.2125C5.27372 37.6987 5.61328 38.1458 6.0995 38.2125C6.14039 38.2187 6.18216 38.2214 6.22216 38.2214C6.65861 38.2214 7.03905 37.8996 7.10216 37.456C7.10394 37.4418 7.3075 36.0365 8.10216 34.3147C8.3075 33.8676 8.11283 33.3405 7.6675 33.1343Z" fill="#FF1F1F"/>
<path d="M35.9318 29.0928C36.0678 29.0928 36.2065 29.0617 36.3354 28.9959C37.4838 28.4083 38.4963 27.5746 39.3434 26.5194C39.6509 26.1363 39.5896 25.5763 39.2065 25.2697C38.8243 24.9648 38.2643 25.0243 37.9567 25.4066C37.2669 26.2661 36.4492 26.9408 35.5256 27.4128C35.0883 27.6368 34.9149 28.1719 35.1389 28.6092C35.2972 28.9159 35.6092 29.0928 35.9318 29.0928Z" fill="#FF1F1F"/>
<path d="M25.9283 27.0513C25.5363 26.8868 25.307 26.7731 25.2918 26.7651C25.2341 26.7357 25.1727 26.7117 25.1096 26.6957C24.147 26.4486 23.1985 26.2531 22.2892 26.1144C21.8047 26.0379 21.3505 26.3731 21.2759 26.8584C21.2021 27.3437 21.5354 27.7979 22.0207 27.8717C22.8439 27.9979 23.7034 28.1739 24.5781 28.3962C24.6972 28.453 24.9247 28.5606 25.243 28.693C25.355 28.7402 25.4714 28.7615 25.5852 28.7615C25.9327 28.7615 26.2634 28.557 26.4056 28.2157C26.595 27.7606 26.3816 27.2397 25.9283 27.0513Z" fill="#FF1F1F"/>
<path d="M41.709 16.8279C41.7286 16.8288 41.7472 16.8297 41.7668 16.8297C42.2317 16.8297 42.6228 16.4688 42.653 15.9968C42.7081 15.1426 42.7357 14.2386 42.7357 13.3124C42.7357 13.0039 42.733 12.691 42.7268 12.3719C42.7179 11.8804 42.2912 11.507 41.8219 11.499C41.3312 11.5079 40.9401 11.9132 40.949 12.4039C40.9543 12.7124 40.9579 13.0155 40.9579 13.3124C40.9579 14.2012 40.9312 15.0661 40.8788 15.8839C40.8477 16.3737 41.2192 16.7959 41.709 16.8279Z" fill="#FF1F1F"/>
<path d="M7.37199 24.6288C7.54533 24.8021 7.77288 24.8892 8.00044 24.8892C8.22799 24.8892 8.45555 24.8021 8.62888 24.6288L9.77822 23.4794L10.9276 24.6288C11.1009 24.8021 11.3284 24.8892 11.556 24.8892C11.7836 24.8892 12.0111 24.8021 12.1844 24.6288C12.532 24.2812 12.532 23.7194 12.1844 23.3719L11.0351 22.2226L12.1844 21.0732C12.532 20.7257 12.532 20.1639 12.1844 19.8163C11.8369 19.4688 11.2751 19.4688 10.9276 19.8163L9.77822 20.9657L8.62888 19.8163C8.28133 19.4688 7.71955 19.4688 7.37199 19.8163C7.02444 20.1639 7.02444 20.7257 7.37199 21.0732L8.52133 22.2226L7.37199 23.3719C7.02444 23.7186 7.02444 24.2812 7.37199 24.6288Z" fill="#FF1F1F"/>
</svg>
