<svg width="32" height="48" viewBox="0 0 32 48" fill="none" xmlns="http://www.w3.org/2000/svg">
<path d="M15.8922 38.9585C16.2167 38.9585 16.554 38.8087 16.554 38.5216V30.2592C16.554 29.9845 16.2419 29.8223 15.9673 29.8223C15.8175 29.8223 15.7175 29.8721 15.6304 29.9596L14.3322 31.2076C14.1699 31.3197 14.0703 31.5321 14.0703 31.7192C14.0703 31.9814 14.2574 32.2561 14.5193 32.2561C14.5944 32.2561 14.7068 32.2184 14.7939 32.1312L15.2308 31.5819V38.5216C15.2308 38.8087 15.5553 38.9585 15.8922 38.9585V38.9585Z" fill="#FF1F1F"/>
<path d="M9.4 27.1598C7.61949 28.7019 6.44395 30.8274 6.09019 33.144C6.0316 33.5282 6.2949 33.8867 6.67869 33.9453C6.71495 33.9508 6.75047 33.9537 6.78599 33.9537C7.1273 33.9537 7.42686 33.7043 7.47996 33.3564C7.78355 31.3697 8.79246 29.5464 10.3207 28.2225C11.8642 26.8855 13.8403 26.1494 15.8852 26.1494C17.9272 26.1494 19.9015 26.884 21.4443 28.2181C22.9714 29.5387 23.9814 31.3588 24.2879 33.3422C24.3473 33.726 24.7065 33.9893 25.0903 33.9296C25.4741 33.8702 25.737 33.5114 25.6777 33.1276C25.3203 30.8146 24.1437 28.6931 22.3642 27.1543C20.5661 25.5994 18.2652 24.7432 15.8852 24.7432C13.5023 24.7432 11.1992 25.6012 9.4 27.1598V27.1598Z" fill="#FF1F1F"/>
<path d="M25.0911 35.3597C24.7077 35.3011 24.3484 35.5648 24.2899 35.9486C23.9863 37.9353 22.9774 39.7586 21.4492 41.0825C19.9056 42.4195 17.9295 43.1556 15.8846 43.1556C13.8408 43.1556 11.8651 42.4199 10.3218 41.0836C8.79401 39.7608 7.78473 37.9386 7.48041 35.9522C7.42145 35.5685 7.0622 35.3051 6.67877 35.3641C6.29499 35.4227 6.03131 35.7816 6.09027 36.1654C6.44513 38.4813 7.62104 40.6053 9.40119 42.1467C11.2 43.7042 13.5024 44.5619 15.8846 44.5619C18.2675 44.5619 20.5706 43.7038 22.3698 42.1456C24.1503 40.6031 25.3259 38.478 25.68 36.161C25.7386 35.7772 25.4749 35.4183 25.0911 35.3597V35.3597Z" fill="#FF1F1F"/>
<path d="M29.8345 0H1.93542C0.868286 0 0 0.868286 0 1.93542C0 3.00293 0.868286 3.87122 1.93542 3.87122H2.53711V12.0048C2.53711 13.1587 3.20984 14.2262 4.25134 14.7239L13.0375 18.9247C12.1963 19.2198 11.5913 20.0222 11.5913 20.963V22.0129C6.33105 23.8044 2.53711 28.7937 2.53711 34.6523C2.53711 42.0121 8.52502 48 15.8851 48C23.2449 48 29.2328 42.0121 29.2328 34.6523C29.2328 28.7937 25.4388 23.8044 20.179 22.0129V20.963C20.179 20.0222 19.574 19.2198 18.7328 18.9247L27.5189 14.7239C28.5601 14.2262 29.2328 13.1587 29.2328 12.0048V3.87085H29.8345C30.9016 3.87085 31.7703 3.00256 31.7703 1.93542C31.7703 0.868286 30.9016 0 29.8345 0ZM3.94336 12.0044V3.87085H10.0723V5.64038C10.0723 6.02856 10.3872 6.34351 10.7754 6.34351C11.1636 6.34351 11.4785 6.02856 11.4785 5.64038V3.87085H20.2917V16.6205L15.8851 18.7273L11.4785 16.6205V8.45251C11.4785 8.06433 11.1636 7.74939 10.7754 7.74939C10.3868 7.74939 10.0723 8.06433 10.0723 8.45251V15.9481L4.85779 13.455C4.30225 13.1895 3.94336 12.62 3.94336 12.0044ZM27.8265 34.6523C27.8265 41.2368 22.4696 46.5938 15.8851 46.5938C9.30029 46.5938 3.94336 41.2368 3.94336 34.6523C3.94336 28.0679 9.30029 22.7106 15.8851 22.7106C22.4696 22.7106 27.8265 28.0675 27.8265 34.6523ZM18.7727 21.6189C17.8425 21.4131 16.8761 21.3043 15.8851 21.3043C14.8938 21.3043 13.9274 21.4131 12.9976 21.6189V20.963C12.9976 20.5477 13.3352 20.2097 13.7509 20.2097H18.0194C18.4347 20.2097 18.7727 20.5477 18.7727 20.963V21.6189ZM27.8265 12.0044C27.8265 12.62 27.4677 13.1895 26.9121 13.455L21.698 15.9481V3.87085H27.8265V12.0044ZM29.8345 2.4646H1.93542C1.64355 2.4646 1.40625 2.22729 1.40625 1.93542C1.40625 1.64355 1.64355 1.40625 1.93542 1.40625H29.8345C30.1263 1.40625 30.364 1.64355 30.364 1.93542C30.364 2.22729 30.1263 2.4646 29.8345 2.4646Z" fill="#FF1F1F"/>
</svg>
