<svg width="52" height="48" viewBox="0 0 52 48" fill="none" xmlns="http://www.w3.org/2000/svg">
<path d="M51.484 18.5819C50.8377 16.9545 48.9944 16.1593 47.367 16.8056C47.2833 16.8389 47.201 16.8757 47.1205 16.9159L44.7694 18.0932L39.9694 11.6944C39.9101 11.6154 39.8379 11.5469 39.7556 11.492L34.5193 8.00112C34.4142 7.93097 34.295 7.8845 34.1702 7.86497L22.8249 6.11954C22.5507 6.07732 22.2727 6.16809 22.0761 6.3639L15.57 12.8456C14.4774 13.9342 14.474 15.7024 15.5626 16.795C15.5651 16.7975 15.5675 16.8001 15.57 16.8025C16.6122 17.8376 18.2767 17.8925 19.3847 16.9281L24.6568 12.3149L29.3345 13.652L25.4195 22.2543L19.4135 30.834L12.2747 37.258C10.9745 38.3748 10.8259 40.3341 11.9426 41.6343C13.0594 42.9344 15.0187 43.0831 16.3188 41.9663L24.1838 35.5257L28.8851 30.8244L34.8475 35.297L33.5209 44.5548C33.3967 45.4205 33.6547 46.2976 34.2278 46.9583C34.8166 47.6317 35.6714 48.0124 36.5658 47.9994C38.0476 48.0015 39.3211 46.9487 39.5977 45.493L41.8789 33.3238C41.9357 33.0207 41.8281 32.7102 41.5962 32.507L35.0595 26.7924L37.8418 19.1422L42.9786 25.013C43.2299 25.2999 43.6384 25.3904 43.9874 25.2364L49.88 22.6305C51.4292 21.9442 52.1428 20.1431 51.484 18.5819ZM49.174 21.0325L43.8687 23.3784L38.1821 16.8793C37.8646 16.5166 37.3132 16.4802 36.9506 16.7978C36.84 16.8946 36.7558 17.0178 36.7055 17.1559L33.2146 26.7558C33.0916 27.0942 33.189 27.4734 33.4598 27.7105L40.0672 33.4923L37.8749 45.1718C37.7441 45.8179 37.1662 46.2752 36.5074 46.254C35.8046 46.2538 35.2351 45.684 35.2353 44.9812C35.2353 44.9212 35.2395 44.8612 35.248 44.8018L36.6444 35.0326C36.6897 34.717 36.5592 34.4017 36.304 34.2105L29.3223 28.9742C28.9749 28.7137 28.4887 28.7483 28.1817 29.0554L23.01 34.2332L15.2096 40.6154C14.6329 41.0933 13.7779 41.0131 13.3 40.4364C12.8339 39.8738 12.8971 39.043 13.4432 38.5575L20.6554 32.0663C20.7047 32.0221 20.7485 31.9723 20.7863 31.9179L26.8953 23.1907C26.9262 23.1471 26.9527 23.1006 26.9747 23.052L31.3383 13.4521C31.5377 13.0132 31.3436 12.4959 30.9048 12.2965C30.8657 12.2787 30.8253 12.2639 30.7841 12.2521L24.6751 10.5067C24.39 10.4241 24.0826 10.4928 23.86 10.6891L18.231 15.6147C17.8078 16.0101 17.1441 15.9877 16.7487 15.5645C16.3532 15.1413 16.3757 14.4776 16.7988 14.0822L22.9951 7.91123L33.7129 9.56066L38.6604 12.8613L43.8094 19.7234C44.0623 20.061 44.5203 20.1693 44.8977 19.9809L47.9007 18.4754C48.2539 18.2976 48.6656 18.2765 49.0352 18.417C49.4308 18.5714 49.7398 18.8898 49.8826 19.2897C50.1542 19.9667 49.8409 20.7372 49.174 21.0325Z" fill="#FF1F1F"/>
<path d="M16.5816 5.2373H5.23633V6.98274H16.5816V5.2373Z" fill="#FF1F1F"/>
<path d="M3.48957 5.2373H1.74414V6.98274H3.48957V5.2373Z" fill="#FF1F1F"/>
<path d="M10.472 12.2168H8.72656V13.9622H10.472V12.2168Z" fill="#FF1F1F"/>
<path d="M6.98173 12.2168H0V13.9622H6.98173V12.2168Z" fill="#FF1F1F"/>
<path d="M13.0904 19.1982H4.36328V20.9437H13.0904V19.1982Z" fill="#FF1F1F"/>
<path d="M16.5803 26.1816H1.74414V27.9271H16.5803V26.1816Z" fill="#FF1F1F"/>
<path d="M10.472 33.1631H3.49023V34.9085H10.472V33.1631Z" fill="#FF1F1F"/>
<path d="M1.74543 33.1631H0V34.9085H1.74543V33.1631Z" fill="#FF1F1F"/>
<path d="M7.85315 40.1455H1.74414V41.8909H7.85315V40.1455Z" fill="#FF1F1F"/>
<path d="M43.6354 0H39.7081C37.0572 0 34.9082 2.14895 34.9082 4.79994C34.9082 7.45092 37.0572 9.59987 39.7081 9.59987C42.3591 9.59987 44.5081 7.45092 44.5081 4.79994V0.872716C44.5081 0.390758 44.1173 0 43.6354 0ZM42.7626 4.79994C42.7692 6.48013 41.4125 7.84757 39.7324 7.85411C38.7901 7.85782 37.8994 7.42474 37.3204 6.68151C38.7731 5.24546 40.7204 4.41976 42.7626 4.37405V4.79994ZM42.7626 2.62862C40.5273 2.66931 38.3742 3.47897 36.6659 4.92124C36.6659 4.88023 36.6536 4.84183 36.6536 4.79994C36.6536 3.11298 38.0212 1.74543 39.7081 1.74543H42.7626V2.62862Z" fill="#FF1F1F"/>
</svg>
