<svg width="42" height="46" viewBox="0 0 42 46" fill="none" xmlns="http://www.w3.org/2000/svg">
<path d="M31.0991 41.6037C30.8282 41.1879 30.2716 41.0703 29.8558 41.3412C26.9821 43.2131 23.6416 44.2025 20.1958 44.2025C10.4233 44.2025 2.47265 36.252 2.47265 26.4795C2.47265 22.9307 3.51744 19.507 5.49427 16.5779C5.77189 16.1666 5.66345 15.6082 5.25214 15.3306C4.84093 15.053 4.28237 15.1614 4.00475 15.5727C1.82704 18.7997 0.675781 22.5714 0.675781 26.4796C0.675781 31.6935 2.70625 36.5954 6.39307 40.2823C10.0799 43.9692 14.9818 45.9996 20.1958 45.9996C23.9907 45.9996 27.6702 44.9094 30.8366 42.847C31.2525 42.5762 31.37 42.0195 31.0991 41.6037Z" fill="#FF1F1F"/>
<path d="M34.1178 38.879C33.7635 38.5316 33.1947 38.5372 32.8471 38.8915L32.8173 38.9218C32.4678 39.274 32.4701 39.8428 32.8222 40.1924C32.9975 40.3663 33.2263 40.4531 33.4551 40.4531C33.6861 40.4531 33.9173 40.3645 34.0929 40.1874L34.1301 40.1497C34.4776 39.7953 34.4721 39.2265 34.1178 38.879Z" fill="#FF1F1F"/>
<path d="M37.7559 14.7244C37.9314 14.8998 38.1613 14.9875 38.3912 14.9875C38.6211 14.9875 38.851 14.8997 39.0265 14.7244L40.5231 13.2278C41.5895 12.1612 41.5895 10.4259 40.5231 9.35936L37.3157 6.15195C36.799 5.63535 36.1121 5.35081 35.3816 5.35081C34.6509 5.35081 33.964 5.63535 33.4474 6.15195L31.9508 7.64847C31.7823 7.81693 31.6876 8.04549 31.6876 8.28376C31.6876 8.52202 31.7823 8.75058 31.9508 8.91904L32.3757 9.34391L31.2991 10.4204C29.0163 8.83486 26.4347 7.76554 23.6995 7.27257V5.75026H25.6761C26.1722 5.75026 26.5745 5.34803 26.5745 4.85182V0.898436C26.5745 0.40223 26.1722 0 25.6761 0H14.7147C14.2186 0 13.8163 0.40223 13.8163 0.898436V4.85173C13.8163 5.34794 14.2186 5.75017 14.7147 5.75017H16.6914V7.27436C14.1199 7.74065 11.666 8.71995 9.46258 10.1729C9.04831 10.4461 8.93394 11.0033 9.20706 11.4177C9.48036 11.8319 10.0377 11.9463 10.4518 11.6731C13.345 9.76528 16.7143 8.75687 20.1955 8.75687C29.968 8.75687 37.9186 16.7074 37.9186 26.48C37.9186 29.7941 36.9985 33.0258 35.2576 35.8253C34.9956 36.2467 35.1247 36.8006 35.5461 37.0628C35.6938 37.1546 35.8577 37.1984 36.0197 37.1984C36.32 37.1984 36.6133 37.048 36.7836 36.7742C38.7018 33.6895 39.7156 30.1298 39.7156 26.48C39.7156 22.4539 38.5039 18.6145 36.2547 15.3763L37.3312 14.2998L37.7559 14.7244ZM21.9024 7.03448C21.3378 6.98588 20.7687 6.95991 20.1953 6.95991C19.6231 6.95982 19.0536 6.98516 18.4882 7.0343V5.75026H21.9023V7.03448H21.9024ZM17.5898 3.9533H15.6132V1.79696H24.7776V3.9533H22.8009H17.5898ZM35.1524 13.937C34.7875 13.5035 34.4034 13.0826 33.998 12.6771C33.5926 12.2717 33.1717 11.8877 32.7381 11.5227L33.6461 10.6147L36.0603 13.0288L35.1524 13.937ZM34.2816 8.70881C34.2814 8.70863 34.2812 8.70854 34.2811 8.70836L33.8567 8.28403L34.7181 7.42279C34.8953 7.24552 35.1309 7.14795 35.3816 7.14795C35.6321 7.14795 35.8678 7.24552 36.045 7.42288L39.2525 10.6302C39.6183 10.996 39.6183 11.5914 39.2525 11.9574L38.3912 12.8185L37.9677 12.395C37.9672 12.3945 37.9669 12.3941 37.9664 12.3937L34.2816 8.70881Z" fill="#FF1F1F"/>
<path d="M20.1953 13.7451C19.6992 13.7451 19.2969 14.1473 19.2969 14.6436V16.6202C19.2969 17.1164 19.6991 17.5186 20.1953 17.5186C20.6914 17.5186 21.0937 17.1164 21.0937 16.6202V14.6436C21.0937 14.1473 20.6914 13.7451 20.1953 13.7451Z" fill="#FF1F1F"/>
<path d="M29.2016 17.4752C29.0345 17.308 28.8028 17.2119 28.5664 17.2119C28.3301 17.2119 28.0983 17.308 27.9313 17.4752C27.7642 17.6423 27.668 17.8741 27.668 18.1104C27.668 18.3475 27.7641 18.5784 27.9313 18.7455C28.0983 18.9127 28.3301 19.0088 28.5664 19.0088C28.8028 19.0088 29.0345 18.9127 29.2016 18.7455C29.3687 18.5784 29.4648 18.3466 29.4648 18.1104C29.4648 17.8741 29.3688 17.6423 29.2016 17.4752Z" fill="#FF1F1F"/>
<path d="M32.0333 25.5811H30.0566C29.5605 25.5811 29.1582 25.9833 29.1582 26.4795C29.1582 26.9757 29.5605 27.3779 30.0566 27.3779H32.0333C32.5294 27.3779 32.9317 26.9757 32.9317 26.4795C32.9317 25.9833 32.5294 25.5811 32.0333 25.5811Z" fill="#FF1F1F"/>
<path d="M29.2016 34.2134C29.0345 34.0463 28.8028 33.9502 28.5664 33.9502C28.3301 33.9502 28.0983 34.0463 27.9313 34.2134C27.7642 34.3805 27.668 34.6123 27.668 34.8486C27.668 35.0858 27.7641 35.3176 27.9313 35.4838C28.0983 35.6518 28.3301 35.7471 28.5664 35.7471C28.8028 35.7471 29.0345 35.6518 29.2016 35.4838C29.3687 35.3167 29.4648 35.0858 29.4648 34.8486C29.4648 34.6123 29.3688 34.3814 29.2016 34.2134Z" fill="#FF1F1F"/>
<path d="M20.1953 35.4414C19.6992 35.4414 19.2969 35.8436 19.2969 36.3398V38.3165C19.2969 38.8127 19.6992 39.2149 20.1953 39.2149C20.6914 39.2149 21.0937 38.8127 21.0937 38.3165V36.3398C21.0937 35.8437 20.6914 35.4414 20.1953 35.4414Z" fill="#FF1F1F"/>
<path d="M12.4614 34.2134C12.2942 34.0463 12.0625 33.9502 11.8262 33.9502C11.5899 33.9502 11.3581 34.0463 11.1911 34.2134C11.024 34.3805 10.9277 34.6123 10.9277 34.8486C10.9277 35.0858 11.0239 35.3167 11.1911 35.4838C11.3581 35.6518 11.5899 35.7471 11.8262 35.7471C12.0625 35.7471 12.2943 35.6518 12.4614 35.4838C12.6285 35.3167 12.7246 35.0858 12.7246 34.8486C12.7247 34.6123 12.6286 34.3805 12.4614 34.2134Z" fill="#FF1F1F"/>
<path d="M10.336 25.5811H8.35937C7.86326 25.5811 7.46094 25.9833 7.46094 26.4795C7.46094 26.9757 7.86326 27.3779 8.35937 27.3779H10.336C10.8321 27.3779 11.2345 26.9757 11.2345 26.4795C11.2345 25.9833 10.8322 25.5811 10.336 25.5811Z" fill="#FF1F1F"/>
<path d="M12.4614 17.4752C12.2943 17.308 12.0625 17.2119 11.8262 17.2119C11.5899 17.2119 11.3581 17.308 11.1911 17.4752C11.024 17.6423 10.9277 17.8741 10.9277 18.1104C10.9277 18.3466 11.0239 18.5784 11.1911 18.7455C11.3581 18.9127 11.5899 19.0088 11.8262 19.0088C12.0625 19.0088 12.2943 18.9127 12.4614 18.7455C12.6285 18.5784 12.7246 18.3466 12.7246 18.1104C12.7246 17.8741 12.6286 17.6423 12.4614 17.4752Z" fill="#FF1F1F"/>
<path d="M27.2102 19.4643C26.9177 19.1719 26.4634 19.1169 26.1096 19.3311L18.6932 23.8209C18.613 23.8665 18.5007 23.9325 18.4247 23.9923C17.6483 24.5468 17.1406 25.4545 17.1406 26.4791C17.1406 28.1637 18.511 29.534 20.1954 29.534C21.216 29.534 22.1208 29.0303 22.6758 28.2589C22.7422 28.1767 22.8041 28.0688 22.8545 27.98L27.3434 20.5649C27.5576 20.2112 27.5025 19.7568 27.2102 19.4643ZM21.3065 27.0671L21.2323 27.1897C21.0053 27.5199 20.6254 27.7371 20.1953 27.7371C19.5018 27.7371 18.9375 27.1729 18.9375 26.4793C18.9375 26.0491 19.1548 25.669 19.4852 25.442L19.607 25.3683C19.7827 25.2749 19.9827 25.2215 20.1952 25.2215C20.8888 25.2215 21.4531 25.7857 21.4531 26.4794C21.4531 26.6916 21.3997 26.8916 21.3065 27.0671ZM22.7105 24.7482C22.4989 24.4417 22.233 24.1758 21.9264 23.9642L23.9133 22.7614L22.7105 24.7482Z" fill="#FF1F1F"/>
<path d="M20.197 10.916C11.6149 10.916 4.63281 17.8979 4.63281 26.4801C4.63281 35.0622 11.6148 42.0442 20.197 42.0442C28.7793 42.0442 35.7612 35.0622 35.7612 26.4801C35.7612 17.8979 28.7792 10.916 20.197 10.916ZM20.197 40.2473C12.6058 40.2473 6.42977 34.0713 6.42977 26.4801C6.42977 18.8888 12.6057 12.7129 20.197 12.7129C27.7883 12.7129 33.9642 18.8888 33.9642 26.4801C33.9642 34.0713 27.7883 40.2473 20.197 40.2473Z" fill="#FF1F1F"/>
<path d="M7.71918 12.6226C7.55198 12.4555 7.32027 12.3594 7.08398 12.3594C6.84769 12.3594 6.6159 12.4555 6.44888 12.6226C6.28177 12.7897 6.18555 13.0215 6.18555 13.2578C6.18555 13.495 6.28168 13.7259 6.44888 13.893C6.6159 14.0601 6.84769 14.1562 7.08398 14.1562C7.32027 14.1562 7.55207 14.0601 7.71918 13.893C7.88629 13.7259 7.98242 13.4941 7.98242 13.2578C7.98242 13.0216 7.88638 12.7898 7.71918 12.6226Z" fill="#FF1F1F"/>
</svg>
