<svg width="53" height="47" viewBox="0 0 53 47" fill="none" xmlns="http://www.w3.org/2000/svg">
<path d="M49.7774 21.2442C48.9151 19.6179 48.0233 17.9363 47.302 15.4291C46.3088 11.9778 44.2443 10.3319 42.6874 9.55893C41.9417 9.18914 41.1449 8.93115 40.323 8.79336V0.872529C40.323 0.678347 40.2575 0.489758 40.1371 0.336765C40.0166 0.183773 39.8481 0.0751662 39.6583 0.0282231C39.4686 -0.0187201 39.2684 -0.00130282 39.0898 0.0777042C38.9111 0.156711 38.7642 0.292769 38.6724 0.464233C36.4198 -0.249988 29.5134 -1.44659 24.636 8.31837C24.5744 8.44171 24.5431 8.57781 24.5448 8.71548C24.5464 8.85316 24.581 8.98848 24.6455 9.11034C24.7101 9.23219 24.8028 9.3371 24.9161 9.41644C25.0295 9.49579 25.1602 9.54731 25.2974 9.56676C26.158 9.6734 27.0246 9.72428 27.8918 9.71907C29.2532 9.72438 30.6119 9.59788 31.9485 9.34135C34.8871 8.75778 37.1197 7.52604 38.5702 5.71607V8.79369C37.7483 8.93147 36.9515 9.18947 36.2058 9.55926C34.6489 10.3322 32.5844 11.9781 31.5912 15.4295C30.8698 17.9354 29.9784 19.6168 29.1165 21.2428C28.8564 21.7333 28.6071 22.2047 28.3666 22.6885C27.9742 22.6508 27.5767 22.6309 27.1745 22.6309C26.8097 22.6309 26.4487 22.6477 26.0919 22.6788C25.6596 20.1612 24.538 18.355 22.7459 17.3074C19.8306 15.6032 15.9696 16.438 14.0257 17.0434V13.0573H14.0245C14.025 13.0117 14.0218 12.9661 14.015 12.921C14.0048 12.8567 13.7506 11.3257 12.5532 9.62181C11.4625 8.06978 9.34267 6.05028 5.43879 5.24206C5.24264 5.20155 5.03844 5.22892 4.86015 5.31963C4.68185 5.41034 4.5402 5.55892 4.45876 5.74065C4.39872 5.87479 3.00713 9.05631 4.74551 11.5015C5.92354 13.1583 8.18689 13.9938 11.4858 13.9938C11.7415 13.9938 12.0037 13.9887 12.2726 13.9783V17.043C10.2674 16.4179 6.22169 15.5491 3.27822 17.4765C1.10286 18.9005 0 21.5131 0 25.242C0 32.1868 3.11408 38.6755 7.40453 40.6708C8.20324 41.0537 9.07737 41.2564 9.96428 41.2645C11.1042 41.2563 12.2147 40.9046 13.1488 40.2559C14.2665 41.0074 15.4942 41.3439 16.7555 41.2469C17.7477 42.8342 19.0945 44.1733 20.6916 45.1608C22.2888 46.1482 24.0934 46.7573 25.9658 46.941C27.8381 47.1247 29.728 46.878 31.4889 46.2201C33.2498 45.5621 34.8345 44.5105 36.1203 43.1468C37.2132 43.3839 38.3278 43.5087 39.4464 43.5191C41.5283 43.5191 44.695 42.9735 47.3391 41.4422C50.7776 39.4507 52.5952 36.2564 52.5952 32.2047C52.5952 26.5573 51.2266 23.9766 49.7774 21.2442ZM31.6448 7.62613C30.0546 7.92706 28.4335 8.03552 26.817 7.94913C28.6351 4.76881 30.8529 2.78792 33.422 2.05325C35.0671 1.5859 36.8189 1.64656 38.4273 2.22656C37.6056 5.06951 35.3265 6.88471 31.6448 7.62613ZM6.18235 10.5044C5.39715 9.40717 5.60852 7.96121 5.83413 7.12481C9.91387 8.22155 11.4526 10.8286 12.0017 12.2461C9.06172 12.3263 7.06025 11.7314 6.18235 10.5044ZM13.71 38.4985C13.5525 38.3682 13.354 38.2968 13.1489 38.2968C12.9439 38.2968 12.7453 38.3682 12.5878 38.4985C11.2221 39.6285 9.72793 39.8292 8.14843 39.0943C6.47469 38.316 4.90505 36.5709 3.72714 34.1808C2.43571 31.5598 1.75317 28.4686 1.75317 25.242C1.75317 22.1375 2.58955 20.0145 4.23918 18.932C7.42404 16.8425 12.7508 19.0568 12.8035 19.0791C12.9126 19.1254 13.0301 19.1493 13.1487 19.1493C13.2673 19.1493 13.3848 19.1254 13.4939 19.0791C13.5451 19.0574 18.6566 16.9319 21.8607 18.8091C23.1785 19.5815 24.0171 20.9741 24.362 22.9541C22.6298 23.359 21.0069 24.1331 19.606 25.2228C18.2052 26.3125 17.0598 27.6916 16.2492 29.2646C15.4387 30.8376 14.9824 32.5669 14.9121 34.3324C14.8418 36.0979 15.159 37.8575 15.8419 39.4892C15.0998 39.388 14.3863 39.058 13.7098 38.4985H13.71ZM27.1742 45.2593C25.0937 45.2593 23.06 44.6468 21.3301 43.4992C19.6003 42.3516 18.252 40.7204 17.4559 38.812C16.6597 36.9036 16.4514 34.8037 16.8573 32.7777C17.2632 30.7518 18.265 28.8908 19.7361 27.4302C21.2072 25.9696 23.0815 24.9749 25.122 24.5719C27.1625 24.1689 29.2776 24.3757 31.1997 25.1662C33.1218 25.9567 34.7646 27.2953 35.9205 29.0128C37.0763 30.7304 37.6933 32.7496 37.6933 34.8153C37.6901 37.5842 36.5808 40.2389 34.6088 42.1968C32.6368 44.1548 29.9631 45.2562 27.1742 45.2593ZM46.4557 39.9387C44.1143 41.295 41.2993 41.7784 39.4464 41.7784C38.7476 41.7727 38.0503 41.7145 37.3604 41.6043C38.4584 39.9825 39.1473 38.1221 39.3687 36.1802C39.5902 34.2384 39.3377 32.2722 38.6327 30.4476C37.9277 28.6231 36.7908 26.9937 35.3181 25.6972C33.8454 24.4007 32.08 23.4752 30.1711 22.9987C30.3317 22.6871 30.4971 22.3745 30.6675 22.0532C31.5289 20.4284 32.5052 18.5865 33.2766 15.9074C34.8172 10.5536 39.2622 10.448 39.4422 10.446C39.6306 10.4478 44.0757 10.5534 45.6163 15.9074C46.3876 18.5879 47.3644 20.43 48.2262 22.0552C49.6299 24.7019 50.8421 26.9879 50.8421 32.2047C50.8421 35.6509 49.3662 38.2524 46.4557 39.9387Z" fill="#FF1F1F"/>
<path d="M33.3103 40.0373C33.7944 40.0373 34.1869 39.6476 34.1869 39.1669C34.1869 38.6863 33.7944 38.2966 33.3103 38.2966C32.8262 38.2966 32.4337 38.6863 32.4337 39.1669C32.4337 39.6476 32.8262 40.0373 33.3103 40.0373Z" fill="#FF1F1F"/>
<path d="M30.6805 42.6483C31.1647 42.6483 31.5571 42.2586 31.5571 41.778C31.5571 41.2973 31.1647 40.9076 30.6805 40.9076C30.1964 40.9076 29.804 41.2973 29.804 41.778C29.804 42.2586 30.1964 42.6483 30.6805 42.6483Z" fill="#FF1F1F"/>
<path d="M30.6805 37.4263C31.1647 37.4263 31.5571 37.0366 31.5571 36.5559C31.5571 36.0753 31.1647 35.6856 30.6805 35.6856C30.1964 35.6856 29.804 36.0753 29.804 36.5559C29.804 37.0366 30.1964 37.4263 30.6805 37.4263Z" fill="#FF1F1F"/>
<path d="M33.3103 34.8153C33.7944 34.8153 34.1869 34.4256 34.1869 33.945C34.1869 33.4643 33.7944 33.0746 33.3103 33.0746C32.8262 33.0746 32.4337 33.4643 32.4337 33.945C32.4337 34.4256 32.8262 34.8153 33.3103 34.8153Z" fill="#FF1F1F"/>
<path d="M30.1961 32.1123C30.4041 32.009 30.5622 31.828 30.6357 31.609C30.7092 31.39 30.6921 31.151 30.5881 30.9446C30.55 30.8684 29.7758 29.3699 28.1994 28.8783C28.2302 28.7953 28.2666 28.7145 28.3083 28.6362C28.5943 28.1021 29.0698 27.8529 29.804 27.8529C30.0365 27.8529 30.2594 27.7612 30.4238 27.598C30.5882 27.4348 30.6806 27.2134 30.6806 26.9826C30.6806 26.7518 30.5882 26.5304 30.4238 26.3672C30.2594 26.204 30.0365 26.1123 29.804 26.1123C28.5833 26.1123 27.7319 26.5801 27.1742 27.222C26.6165 26.5801 25.7651 26.1123 24.5444 26.1123C24.312 26.1123 24.089 26.204 23.9246 26.3672C23.7602 26.5304 23.6679 26.7518 23.6679 26.9826C23.6679 27.2134 23.7602 27.4348 23.9246 27.598C24.089 27.7612 24.312 27.8529 24.5444 27.8529C25.2786 27.8529 25.7541 28.1021 26.0401 28.6362C26.0815 28.7145 26.1174 28.7956 26.1476 28.8787C24.5723 29.3709 23.7986 30.8689 23.7604 30.9446C23.7079 31.0469 23.6763 31.1586 23.6674 31.2731C23.6585 31.3876 23.6725 31.5028 23.7087 31.6119C23.7448 31.721 23.8024 31.8219 23.878 31.9089C23.9536 31.9958 24.0458 32.067 24.1493 32.1184C24.2528 32.1697 24.3655 32.2003 24.4809 32.2082C24.5963 32.2161 24.7122 32.2013 24.8218 32.1645C24.9314 32.1278 25.0326 32.0699 25.1196 31.9941C25.2065 31.9183 25.2775 31.8262 25.3284 31.7231C25.3348 31.7105 25.9957 30.4635 27.1742 30.4635C28.3508 30.4635 29.0159 31.7154 29.02 31.7231C29.0714 31.8254 29.1426 31.9166 29.2296 31.9916C29.3165 32.0665 29.4175 32.1237 29.5267 32.1598C29.636 32.196 29.7513 32.2104 29.8661 32.2022C29.981 32.194 30.0931 32.1635 30.196 32.1123H30.1961Z" fill="#FF1F1F"/>
</svg>
