<svg width="46" height="50" viewBox="0 0 46 50" fill="none" xmlns="http://www.w3.org/2000/svg">
<path d="M3.62185 6.73097L2.80662 9.02325C2.77176 9.1214 2.70261 9.19913 2.61541 9.23849L0.578888 10.1561C0.291193 10.2858 0.291193 10.7442 0.578888 10.8737L2.61541 11.7913C2.70261 11.8306 2.77166 11.9084 2.80662 12.0066L3.62185 14.2988C3.73699 14.6227 4.14431 14.6227 4.25945 14.2988L5.07468 12.0066C5.10955 11.9084 5.17869 11.8307 5.2659 11.7913L7.30242 10.8737C7.59011 10.7442 7.59011 10.2857 7.30242 10.1561L5.2659 9.23849C5.17869 9.19923 5.10964 9.1214 5.07468 9.02325L4.25945 6.73097C4.14431 6.40714 3.73709 6.40714 3.62185 6.73097Z" fill="#FF1F1F"/>
<path d="M34.0924 0.180176L33.4877 1.88057C33.4618 1.95332 33.4105 2.01104 33.3459 2.04023L31.8351 2.7209C31.6217 2.81709 31.6217 3.15713 31.8351 3.25322L33.3459 3.93389C33.4105 3.96299 33.4618 4.0207 33.4877 4.09355L34.0924 5.79395C34.1778 6.03418 34.48 6.03418 34.5654 5.79395L35.1701 4.09355C35.196 4.0208 35.2472 3.96309 35.3119 3.93389L36.8226 3.25322C37.036 3.15703 37.036 2.81699 36.8226 2.7209L35.3119 2.04023C35.2472 2.01113 35.196 1.95342 35.1701 1.88057L34.5654 0.180176C34.48 -0.0600586 34.1778 -0.0600586 34.0924 0.180176Z" fill="#FF1F1F"/>
<path d="M9.40041 3.73066C9.40041 4.39218 9.93665 4.92841 10.5982 4.92841C11.2597 4.92841 11.796 4.39208 11.796 3.73066C11.796 3.06913 11.2598 2.53281 10.5982 2.53281C9.93665 2.53281 9.40041 3.06904 9.40041 3.73066Z" fill="#FF1F1F"/>
<path d="M42.0984 10.4028C42.0984 11.38 42.8906 12.1722 43.8677 12.1722C44.8449 12.1722 45.6371 11.38 45.6371 10.4028C45.6371 9.42567 44.8449 8.63348 43.8677 8.63348C42.8906 8.63358 42.0984 9.42567 42.0984 10.4028Z" fill="#FF1F1F"/>
<path d="M23.8289 50C34.983 50 44.0574 40.9255 44.0574 29.7715C44.0574 18.6175 34.983 9.54297 23.8289 9.54297C12.6748 9.54297 3.60033 18.6175 3.60033 29.7715C3.60043 40.9255 12.6748 50 23.8289 50ZM23.8289 11.507C33.8999 11.507 42.0932 19.7004 42.0932 29.7714C42.0932 39.8424 33.8999 48.0358 23.8289 48.0358C13.7579 48.0358 5.5645 39.8425 5.5645 29.7715C5.5645 19.7005 13.7579 11.507 23.8289 11.507Z" fill="#FF1F1F"/>
<path d="M28.3786 25.2431C28.9209 25.2431 29.3606 24.8034 29.3606 24.261C29.3606 22.7538 30.5868 21.5276 32.0939 21.5276C33.6011 21.5276 34.8273 22.7538 34.8273 24.261C34.8273 24.8034 35.2671 25.2431 35.8094 25.2431C36.3516 25.2431 36.7914 24.8034 36.7914 24.261C36.7914 21.6708 34.6841 19.5636 32.0938 19.5636C29.5037 19.5636 27.3964 21.6709 27.3964 24.261C27.3966 24.8034 27.8363 25.2431 28.3786 25.2431Z" fill="#FF1F1F"/>
<path d="M11.8482 25.2431C12.3905 25.2431 12.8302 24.8034 12.8302 24.261C12.8302 22.7538 14.0564 21.5276 15.5636 21.5276C17.0708 21.5276 18.2969 22.7538 18.2969 24.261C18.2969 24.8034 18.7367 25.2431 19.279 25.2431C19.8212 25.2431 20.261 24.8034 20.261 24.261C20.261 21.6708 18.1537 19.5636 15.5635 19.5636C12.9733 19.5636 10.866 21.6709 10.866 24.261C10.8662 24.8034 11.3059 25.2431 11.8482 25.2431Z" fill="#FF1F1F"/>
<path d="M10.7591 29.1538H36.8986C37.4409 29.1538 37.8806 29.5935 37.8806 30.1358C37.8806 37.884 31.577 44.1876 23.8289 44.1876C16.0807 44.1876 9.7771 37.884 9.7771 30.1358C9.7771 29.5936 10.2168 29.1538 10.7591 29.1538ZM31.2891 39.6394C29.9488 37.491 27.0577 36.09 23.8289 36.09C20.6001 36.09 17.709 37.491 16.3686 39.6394C18.4247 41.2569 21.0159 42.2235 23.8289 42.2235C26.6418 42.2235 29.2331 41.2569 31.2891 39.6394ZM14.9124 38.2876C16.6822 35.7553 20.0861 34.126 23.829 34.126C27.5719 34.126 30.9761 35.7551 32.7458 38.2874C34.5065 36.363 35.6548 33.8693 35.8772 31.118H11.7808C12.0031 33.8694 13.1514 36.3632 14.9124 38.2876Z" fill="#FF1F1F"/>
</svg>
